<svg width="380" height="500" viewBox="0 0 390 500" fill="none" xmlns="http://www.w3.org/2000/svg">
<path d="M59.3385 374.302H64.6354V373.698C63.1354 373.302 62.8385 372 64.0364 369L66.6354 362.5H78.7344L81.4375 369C82.7344 372 83.3385 373.198 81.8385 373.698V374.302H90.0364V373.698C89.0364 373.198 87.8385 372 86.5364 369L75.3385 342.198L70.9375 344.198L71.5364 345.5C71.9375 346.302 72.0364 347 71.6354 347.901L63.1354 368.901C61.9375 371.901 60.7344 373.099 59.3385 373.599V374.302ZM66.8385 361.698L72.5364 347.698L78.3385 361.698H66.8385Z" fill="black"/>
<path d="M130.089 374.599C130.891 374.599 132.292 374.599 133.391 374.302V373.698C133.187 373.698 132.891 373.698 132.687 373.698C130.99 373.698 130.49 372.599 128.089 366.599C125.687 360.599 124.687 358.401 119.589 357.901C125.589 357.198 128.49 354 128.49 349.901C128.49 346.198 126.49 342.698 116.589 342.698H107.089V343.302C108.589 343.802 108.891 345.198 108.891 348.401V368.599C108.891 371.901 108.589 373.198 107.089 373.698V374.302H115.49V373.698C113.99 373.198 113.687 371.802 113.687 368.599V358H116.391C120.391 358 120.589 360.198 123.292 366.802C125.391 372.099 126.292 374.599 130.089 374.599ZM113.589 357.302V343.401C114.292 343.302 114.99 343.302 115.589 343.302C121.292 343.302 123.589 347.198 123.589 350.901C123.589 354.401 121.687 357.302 116.49 357.302H113.589Z" fill="black"/>
<path d="M150.495 374.302H158.891V373.698C157.391 373.198 157.094 371.802 157.094 368.599V348.302C157.094 345 157.391 343.698 158.891 343.198V342.599H150.495V343.198C151.995 343.698 152.292 345.099 152.292 348.302V368.5C152.292 371.802 151.995 373.099 150.495 373.599V374.302Z" fill="black"/>
<path d="M178.604 374.302H201.505L201.807 367.698L201.208 367.599C199.505 372.198 196.307 373.599 191.807 373.599H187.505C186.005 373.599 185.208 372.802 185.208 371.302V357.599H189.604C195.104 357.599 196.708 358.698 197.406 361H198.005V353.401H197.406C196.708 355.802 195.104 356.802 189.604 356.802H185.307V343.302H190.604C195.708 343.302 198.505 344.698 200.307 349.099L200.906 349L200.406 342.599H178.604V343.198C180.104 343.698 180.406 345.099 180.406 348.302V368.5C180.406 371.802 180.104 373.099 178.604 373.599V374.302Z" fill="black"/>
<path d="M227.427 374.302H235.927V373.698C234.427 373.198 234.125 371.802 234.125 368.599V343.401H235.427C239.427 343.401 241.526 344.5 243.229 348.198L243.729 348.099L243.427 342.5H219.828L219.526 348L220.026 348.099C221.729 344.5 223.729 343.302 227.828 343.302H229.229V368.5C229.229 371.802 228.927 373.099 227.427 373.599V374.302Z" fill="black"/>
<path d="M268.26 374.302H276.76V373.698C275.26 373.198 274.958 371.802 274.958 368.599V343.401H276.26C280.26 343.401 282.359 344.5 284.063 348.198L284.563 348.099L284.26 342.599H260.661L260.359 348.099L260.859 348.198C262.563 344.599 264.562 343.401 268.661 343.401H270.063V368.599C270.063 371.901 269.76 373.198 268.26 373.698V374.302Z" fill="black"/>
<path d="M299.589 374.302H304.891V373.698C303.391 373.302 303.089 372 304.292 369L306.891 362.5H318.99L321.693 369C322.99 372 323.589 373.198 322.089 373.698V374.302H330.292V373.698C329.292 373.198 328.089 372 326.792 369L315.693 342.198L311.292 344.198L311.891 345.5C312.292 346.302 312.391 347 311.99 347.901L303.49 368.901C302.292 371.901 301.089 373.099 299.693 373.599V374.302H299.589ZM307.193 361.698L312.891 347.698L318.693 361.698H307.193Z" fill="black"/>
<path d="M66.9948 396.276H60.3958V384.375H66.9948V385.573H61.7969V389.474H66.6979V390.677H61.7969V395.073H66.9948V396.276Z" fill="black"/>
<path d="M90.5364 396.276H88.9375L82.4375 386.276H82.3385C82.3385 386.573 82.3385 386.875 82.3385 387.177C82.3385 387.474 82.3385 387.875 82.4375 388.276C82.4375 388.677 82.4375 389.073 82.4375 389.474V396.276H81.1354V384.375H82.7396L89.2396 394.375H89.3385C89.3385 394.177 89.3385 393.875 89.3385 393.573C89.3385 393.276 89.3385 392.875 89.3385 392.474C89.3385 392.073 89.3385 391.677 89.3385 391.375V384.474H90.6354V396.276H90.5364Z" fill="black"/>
<path d="M109.042 396.276H107.646V385.573H103.844V384.375H112.745V385.573H109.042V396.276Z" fill="black"/>
<path d="M132.724 396.276H126.125V384.375H132.724V385.573H127.526V389.474H132.422V390.677H127.526V395.073H132.724V396.276Z" fill="black"/>
<path d="M150.167 384.375C151.167 384.375 151.964 384.474 152.568 384.776C153.167 384.974 153.667 385.375 153.964 385.875C154.266 386.375 154.464 386.974 154.464 387.776C154.464 388.375 154.365 388.974 154.068 389.375C153.865 389.776 153.568 390.177 153.167 390.375C152.766 390.573 152.365 390.776 151.964 390.974L155.167 396.375H153.568L150.667 391.375H148.167V396.375H146.766V384.375H150.167ZM150.167 385.573H148.365V390.177H150.266C151.266 390.177 151.964 389.974 152.365 389.573C152.865 389.177 153.068 388.573 153.068 387.776C153.068 386.974 152.865 386.375 152.365 386.073C151.865 385.677 151.167 385.573 150.167 385.573Z" fill="black"/>
<path d="M172.578 396.276H171.177V385.573H167.375V384.375H176.276V385.573H172.578V396.276Z" fill="black"/>
<path d="M197.057 396.276L195.557 392.474H190.755L189.255 396.276H187.854L192.458 384.375H193.656L198.255 396.276H197.057ZM195.255 391.276L193.854 387.474C193.854 387.375 193.755 387.177 193.656 386.974C193.557 386.776 193.557 386.573 193.458 386.276C193.354 386.073 193.354 385.875 193.255 385.677C193.156 385.875 193.156 386.073 193.057 386.375C192.958 386.573 192.958 386.776 192.854 386.974C192.755 387.177 192.755 387.276 192.755 387.474L191.354 391.276H195.255Z" fill="black"/>
<path d="M211.755 384.375H213.156V396.276H211.755V384.375Z" fill="black"/>
<path d="M237.344 396.276H235.745L229.245 386.276H229.146C229.146 386.573 229.146 386.875 229.146 387.177C229.146 387.474 229.146 387.875 229.245 388.276C229.245 388.677 229.245 389.073 229.245 389.474V396.276H228.042V384.375H229.646L236.146 394.375H236.245C236.245 394.177 236.245 393.875 236.245 393.573C236.245 393.276 236.245 392.875 236.245 392.474C236.245 392.073 236.245 391.677 236.245 391.375V384.474H237.542V396.276H237.344Z" fill="black"/>
<path d="M257.349 396.276L253.349 385.776H253.25C253.25 385.974 253.25 386.276 253.349 386.573C253.349 386.875 253.349 387.276 253.349 387.573C253.349 387.974 253.349 388.375 253.349 388.677V396.177H252.151V384.375H254.25L258.052 394.276H258.151L261.948 384.375H263.948V396.276H262.552V388.677C262.552 388.375 262.552 387.974 262.552 387.677C262.552 387.276 262.552 386.974 262.552 386.677C262.552 386.375 262.552 386.073 262.651 385.875H262.552L258.552 396.375H257.349V396.276Z" fill="black"/>
<path d="M285.385 396.276H278.786V384.375H285.385V385.573H280.089V389.474H285.089V390.677H280.089V395.073H285.286V396.276H285.385Z" fill="black"/>
<path d="M308.927 396.276H307.328L300.828 386.276H300.729C300.729 386.573 300.729 386.875 300.729 387.177C300.729 387.474 300.729 387.875 300.828 388.276C300.828 388.677 300.828 389.073 300.828 389.474V396.276H299.526V384.375H301.125L307.625 394.375H307.729C307.729 394.177 307.729 393.875 307.729 393.573C307.729 393.276 307.729 392.875 307.729 392.474C307.729 392.073 307.729 391.677 307.729 391.375V384.474H309.026V396.276H308.927Z" fill="black"/>
<path d="M327.432 396.276H326.031V385.573H322.234V384.375H331.135V385.573H327.432V396.276Z" fill="black"/>
<path d="M285.401 220.698C282.302 208.901 281.802 195.198 284.401 188.5C285.802 185 285.901 184 284.901 182.901C284.599 182.599 284.198 182.5 283.198 183.099L255.302 211L210.5 104.401L185.302 115.698L188.599 122.901C190.901 127.5 191.198 131.698 189.099 136.802L140.901 256.198C140.802 256.401 140.802 256.599 140.698 256.802C124.599 251.802 109.198 255.099 103.802 265.5C97.401 278 107.698 296 126.802 305.802C143.401 314.302 161.198 313.698 169.802 305.198C169.802 305.198 169.802 305.198 169.802 305.302C178.302 297.099 191.698 283.802 213.802 261.802L237.302 238.401L258 217.802L269.599 206.198V210C269.599 212.099 270.802 219.198 272.401 225.5C275.901 239.802 276.198 248.599 273.5 254.901C273.401 255.198 273.198 255.5 273.099 255.802C271.901 258.401 268 263.198 263.901 267.302L256.802 274.302L262.901 271C268.401 268 272.901 264.901 276.5 261.698C281.099 257.5 284.302 253.099 286.099 248.198C288.698 241.901 288.302 231.599 285.401 220.698ZM194.698 135.698L227.901 215.198H162.5L194.698 135.698ZM175 291.302C174.302 280.302 164.802 268 150.198 260.5C148.599 259.698 146.901 258.901 145.302 258.302C145.5 257.599 145.802 256.901 146.099 256.198L161 219.401H229.698L234.802 231.599L175 291.302Z" fill="black"/>
</svg>
